<?xml version="1.0" standalone="no"?>
<!DOCTYPE svg PUBLIC "-//W3C//DTD SVG 1.1//EN" "http://www.w3.org/Graphics/SVG/1.1/DTD/svg11.dtd" >
<svg xmlns="http://www.w3.org/2000/svg">
<metadata>Generated by IcoMoon</metadata>
<defs>
<font id="kirkland" horiz-adv-x="1024">
<font-face units-per-em="1024" ascent="960" descent="-64" />
<missing-glyph horiz-adv-x="1024" />
<glyph unicode="&#x20;" horiz-adv-x="512" d="" />
<glyph unicode="&#xe037;" glyph-name="play-arrow" d="M342 724.667l468-298-468-298v596z" />
<glyph unicode="&#xe900;" glyph-name="google-plus" horiz-adv-x="1317" d="M821.143 451.086c0-239.429-160.571-409.143-402.286-409.143-231.429 0-418.857 187.429-418.857 418.857s187.429 418.857 418.857 418.857c113.143 0 207.429-41.143 280.571-109.714l-113.714-109.143c-30.857 29.714-85.143 64.571-166.857 64.571-142.857 0-259.429-118.286-259.429-264.571s116.571-264.571 259.429-264.571c165.714 0 228 119.429 237.714 180.571h-237.714v144h395.429c4-21.143 6.857-42.286 6.857-69.714zM1316.571 520.8v-120h-119.429v-119.429h-120v119.429h-119.429v120h119.429v119.429h120v-119.429h119.429z" />
<glyph unicode="&#xe901;" glyph-name="facebook" horiz-adv-x="602" d="M548 965.943v-150.857h-89.714c-70.286 0-83.429-33.714-83.429-82.286v-108h167.429l-22.286-169.143h-145.143v-433.714h-174.857v433.714h-145.714v169.143h145.714v124.571c0 144.571 88.571 223.429 217.714 223.429 61.714 0 114.857-4.571 130.286-6.857z" />
<glyph unicode="&#xe902;" glyph-name="twitter" horiz-adv-x="951" d="M925.714 739.657c-25.143-36.571-56.571-69.143-92.571-95.429 0.571-8 0.571-16 0.571-24 0-244-185.714-525.143-525.143-525.143-104.571 0-201.714 30.286-283.429 82.857 14.857-1.714 29.143-2.286 44.571-2.286 86.286 0 165.714 29.143 229.143 78.857-81.143 1.714-149.143 54.857-172.571 128 11.429-1.714 22.857-2.857 34.857-2.857 16.571 0 33.143 2.286 48.571 6.286-84.571 17.143-148 91.429-148 181.143v2.286c24.571-13.714 53.143-22.286 83.429-23.429-49.714 33.143-82.286 89.714-82.286 153.714 0 34.286 9.143 65.714 25.143 93.143 90.857-112 227.429-185.143 380.571-193.143-2.857 13.714-4.571 28-4.571 42.286 0 101.714 82.286 184.571 184.571 184.571 53.143 0 101.143-22.286 134.857-58.286 41.714 8 81.714 23.429 117.143 44.571-13.714-42.857-42.857-78.857-81.143-101.714 37.143 4 73.143 14.286 106.286 28.571z" />
<glyph unicode="&#xe903;" glyph-name="linkedin" horiz-adv-x="878" d="M199.429 615.657v-566.286h-188.571v566.286h188.571zM211.429 790.514c0.571-54.286-40.571-97.714-106.286-97.714v0h-1.143c-63.429 0-104 43.429-104 97.714 0 55.429 42.286 97.714 106.286 97.714 64.571 0 104.571-42.286 105.143-97.714zM877.714 373.943v-324.571h-188v302.857c0 76-27.429 128-95.429 128-52 0-82.857-34.857-96.571-68.571-4.571-12.571-6.286-29.143-6.286-46.286v-316h-188c2.286 513.143 0 566.286 0 566.286h188v-82.286h-1.143c24.571 38.857 69.143 95.429 170.857 95.429 124 0 216.571-81.143 216.571-254.857z" />
<glyph unicode="&#xe904;" glyph-name="close" d="M835.6 719.246l-258.446-258.446 258.446-258.446-65.154-65.154-258.446 258.446-258.446-258.446-65.154 65.154 258.446 258.446-258.446 258.446 65.154 65.154 258.446-258.446 258.446 258.446z" />
<glyph unicode="&#xe905;" glyph-name="chevron-thin-up" d="M132.198 261.581c-13.926-13.722-36.301-13.722-50.125 0s-13.875 35.891 0 49.613l404.89 400.896c13.824 13.722 36.198 13.722 50.125 0l404.89-400.896c13.824-13.722 13.824-35.891 0-49.613-13.875-13.722-36.301-13.722-50.074 0l-379.904 365.619-379.802-365.619z" />
<glyph unicode="&#xe906;" glyph-name="chevron-thin-right" d="M678.4 460.8l-365.619 379.904c-13.722 13.824-13.722 36.198 0 50.125 13.722 13.824 35.891 13.824 49.613 0l400.896-404.89c13.722-13.875 13.722-36.301 0-50.125l-400.896-404.89c-13.722-13.875-35.891-13.824-49.613 0-13.722 13.773-13.722 36.198 0 50.125l365.619 379.75z" />
<glyph unicode="&#xe907;" glyph-name="chevron-thin-left" d="M711.219 80.998c13.722-13.926 13.722-36.301 0-50.125s-35.891-13.875-49.613 0l-400.896 404.89c-13.722 13.824-13.722 36.198 0 50.125l400.896 404.89c13.722 13.824 35.891 13.824 49.613 0 13.722-13.875 13.722-36.301 0-50.125l-365.619-379.853 365.619-379.802z" />
<glyph unicode="&#xe908;" glyph-name="chevron-thin-down" d="M891.802 660.019c13.926 13.722 36.301 13.722 50.125 0s13.875-35.891 0-49.613l-404.89-400.896c-13.824-13.722-36.198-13.722-50.125 0l-404.89 400.896c-13.824 13.722-13.824 35.891 0 49.613 13.875 13.722 36.301 13.722 50.125 0l379.853-365.619 379.802 365.619z" />
<glyph unicode="&#xe909;" glyph-name="search" d="M649.644 255.938c-62.278-44.377-138.483-70.482-220.777-70.482-210.349 0-380.872 170.523-380.872 380.872s170.523 380.872 380.872 380.872c210.349 0 380.872-170.523 380.872-380.872 0-105.176-42.631-200.394-111.555-269.318l268.733-268.733c12.324-12.324 12.025-32.087-0.349-44.46-12.46-12.46-32.278-12.532-44.46-0.349l-272.465 272.465zM428.867 230.268c185.603 0 336.064 150.461 336.064 336.064s-150.461 336.064-336.064 336.064c-185.603 0-336.064-150.461-336.064-336.064s150.461-336.064 336.064-336.064v0z" />
<glyph unicode="&#xe90a;" glyph-name="download" d="M896 375.467c-25.6 0-42.667-17.067-42.667-42.667v-170.667c0-25.6-17.067-42.667-42.667-42.667h-597.333c-25.6 0-42.667 17.067-42.667 42.667v170.667c0 25.6-17.067 42.667-42.667 42.667s-42.667-17.067-42.667-42.667v-170.667c0-72.533 55.467-128 128-128h597.333c72.533 0 128 55.467 128 128v170.667c0 25.6-17.067 42.667-42.667 42.667zM482.133 302.933c4.267-4.267 8.533-8.533 12.8-8.533 4.267-4.267 12.8-4.267 17.067-4.267s12.8 0 17.067 4.267c4.267 4.267 8.533 4.267 12.8 8.533l213.333 213.333c17.067 17.067 17.067 42.667 0 59.733s-42.667 17.067-59.733 0l-140.8-140.8v409.6c0 25.6-17.067 42.667-42.667 42.667s-42.667-17.067-42.667-42.667v-409.6l-140.8 140.8c-17.067 17.067-42.667 17.067-59.733 0s-17.067-42.667 0-59.733l213.333-213.333z" />
<glyph unicode="&#xe90b;" glyph-name="external-link" d="M768 460.8c-25.6 0-42.667-17.067-42.667-42.667v-256c0-25.6-17.067-42.667-42.667-42.667h-469.333c-25.6 0-42.667 17.067-42.667 42.667v469.333c0 25.6 17.067 42.667 42.667 42.667h256c25.6 0 42.667 17.067 42.667 42.667s-17.067 42.667-42.667 42.667h-256c-72.533 0-128-55.467-128-128v-469.333c0-72.533 55.467-128 128-128h469.333c72.533 0 128 55.467 128 128v256c0 25.6-17.067 42.667-42.667 42.667zM934.4 861.867c-4.267 8.533-12.8 17.067-21.333 21.333-4.267 4.267-12.8 4.267-17.067 4.267h-256c-25.6 0-42.667-17.067-42.667-42.667s17.067-42.667 42.667-42.667h153.6l-396.8-396.8c-17.067-17.067-17.067-42.667 0-59.733 8.533-8.533 17.067-12.8 29.867-12.8s21.333 4.267 29.867 12.8l396.8 396.8v-153.6c0-25.6 17.067-42.667 42.667-42.667s42.667 17.067 42.667 42.667v256c0 4.267 0 12.8-4.267 17.067z" />
<glyph unicode="&#xe90c;" glyph-name="envelope" d="M108.534 714.777l292.074-253.977-292.146-254.039c-7.323 6.936-11.822 16.797-11.822 27.738v452.603c0 10.918 4.571 20.747 11.894 27.676zM953.298 714.839c7.323-6.936 11.822-16.797 11.822-27.738v-452.603c0-10.917-4.571-20.747-11.894-27.676l-292.074 253.977 292.146 254.039zM632.902 436.234l275.578-239.754h-755.2l275.578 239.754 102.022-88.714 102.022 88.714zM134.536 762.88c-41.784 0-75.656-33.776-75.656-75.296v-453.568c0-41.584 33.597-75.296 75.656-75.296h792.689c41.784 0 75.656 33.776 75.656 75.296v453.568c0 41.584-33.597 75.296-75.656 75.296h-792.689zM530.88 396.608l-377.6 328.512h755.2l-377.6-328.512z" />
<glyph unicode="&#xe90d;" glyph-name="globe" d="M496 908.8c-256.256 0-464-207.744-464-464s207.744-464 464-464 464 207.744 464 464-207.744 464-464 464zM344.064 849.472c-22.848-41.248-49.888-105.44-67.616-196.192h-159.456c49.632 89.568 129.984 159.776 227.072 196.192zM100.928 621.216h170.112c-7.488-46.976-12.512-100.096-13.28-160.384h-193.92c2.144 56.992 14.976 111.168 37.088 160.384zM63.616 428.768h194.304c0.736-60.576 6.016-113.312 13.504-160.384h-169.28c-22.208 49.376-36.416 103.168-38.528 160.384zM117.44 236.32h159.264c17.888-91.648 45.312-155.744 68.288-196.544-97.472 36.288-177.824 106.752-227.552 196.544zM481.984 12.512c-33.664 1.056-66.144 6.368-97.44 14.72-24.16 39.552-55.552 107.616-75.392 209.088h172.832v-223.808zM481.984 268.384h-178.496c-7.488 47.008-12.672 99.808-13.472 160.384h191.936v-160.384zM481.984 460.832h-192.128c0.8 60.352 5.856 113.376 13.344 160.384h178.784v-160.384zM481.984 653.28h-173.504c19.68 100.736 50.912 168.512 75.008 208.8 31.584 8.512 64.48 13.92 98.496 15.040v-223.84zM928.096 460.832h-189.856c-0.8 60.288-5.824 113.408-13.312 160.384h165.504c22.176-49.312 35.456-103.36 37.664-160.384zM874.304 653.28h-154.784c-17.568 89.792-44.224 153.6-66.912 194.88 94.944-36.928 172.864-106.72 221.696-194.88zM514.016 877.152c34.144-1.504 67.264-6.912 98.944-15.776 24.032-40.416 55.040-107.904 74.592-208.096h-173.536v223.872zM514.016 621.216h178.784c7.488-47.008 12.544-100.032 13.344-160.384h-192.128v160.384zM514.016 428.768h191.936c-0.736-60.576-5.984-113.376-13.472-160.384h-178.464v160.384zM514.016 13.088v223.264h172.864c-19.744-100.864-50.912-168.672-74.976-208.384-31.296-8.704-64.16-13.376-97.888-14.88zM651.744 41.152c22.848 40.832 49.92 104.512 67.584 195.2h154.72c-48.704-88.512-126.944-158.4-222.304-195.2zM889.44 268.384h-164.864c7.488 47.072 12.736 99.808 13.536 160.384h189.664c-2.144-57.184-16.256-110.976-38.336-160.384z" />
<glyph unicode="&#xe90f;" glyph-name="chevron-right" d="M663.040 424.602l36.198 36.198-289.638 289.638-72.397-72.397 217.19-217.242-217.19-217.242 72.397-72.397 253.44 253.44z" />
<glyph unicode="&#xe910;" glyph-name="chevron-left" d="M360.96 496.998l-36.198-36.198 289.638-289.638 72.397 72.397-217.19 217.242 217.19 217.242-72.397 72.397z" />
<glyph unicode="&#xea92;" glyph-name="instagram" d="M512 867.8c136.8 0 153-0.6 206.8-3 50-2.2 77-10.6 95-17.6 23.8-9.2 41-20.4 58.8-38.2 18-18 29-35 38.4-58.8 7-18 15.4-45.2 17.6-95 2.4-54 3-70.2 3-206.8s-0.6-153-3-206.8c-2.2-50-10.6-77-17.6-95-9.2-23.8-20.4-41-38.2-58.8-18-18-35-29-58.8-38.4-18-7-45.2-15.4-95-17.6-54-2.4-70.2-3-206.8-3s-153 0.6-206.8 3c-50 2.2-77 10.6-95 17.6-23.8 9.2-41 20.4-58.8 38.2-18 18-29 35-38.4 58.8-7 18-15.4 45.2-17.6 95-2.4 54-3 70.2-3 206.8s0.6 153 3 206.8c2.2 50 10.6 77 17.6 95 9.2 23.8 20.4 41 38.2 58.8 18 18 35 29 58.8 38.4 18 7 45.2 15.4 95 17.6 53.8 2.4 70 3 206.8 3zM512 960c-139 0-156.4-0.6-211-3-54.4-2.4-91.8-11.2-124.2-23.8-33.8-13.2-62.4-30.6-90.8-59.2-28.6-28.4-46-57-59.2-90.6-12.6-32.6-21.4-69.8-23.8-124.2-2.4-54.8-3-72.2-3-211.2s0.6-156.4 3-211c2.4-54.4 11.2-91.8 23.8-124.2 13.2-33.8 30.6-62.4 59.2-90.8 28.4-28.4 57-46 90.6-59 32.6-12.6 69.8-21.4 124.2-23.8 54.6-2.4 72-3 211-3s156.4 0.6 211 3c54.4 2.4 91.8 11.2 124.2 23.8 33.6 13 62.2 30.6 90.6 59s46 57 59 90.6c12.6 32.6 21.4 69.8 23.8 124.2 2.4 54.6 3 72 3 211s-0.6 156.4-3 211c-2.4 54.4-11.2 91.8-23.8 124.2-12.6 34-30 62.6-58.6 91-28.4 28.4-57 46-90.6 59-32.6 12.6-69.8 21.4-124.2 23.8-54.8 2.6-72.2 3.2-211.2 3.2v0zM512 711c-145.2 0-263-117.8-263-263s117.8-263 263-263 263 117.8 263 263c0 145.2-117.8 263-263 263zM512 277.4c-94.2 0-170.6 76.4-170.6 170.6s76.4 170.6 170.6 170.6c94.2 0 170.6-76.4 170.6-170.6s-76.4-170.6-170.6-170.6zM846.8 721.4c0-33.91-27.49-61.4-61.4-61.4s-61.4 27.49-61.4 61.4c0 33.91 27.49 61.4 61.4 61.4s61.4-27.49 61.4-61.4z" />
<glyph unicode="&#xea9d;" glyph-name="youtube" d="M1013.8 652.8c0 0-10 70.6-40.8 101.6-39 40.8-82.6 41-102.6 43.4-143.2 10.4-358.2 10.4-358.2 10.4h-0.4c0 0-215 0-358.2-10.4-20-2.4-63.6-2.6-102.6-43.4-30.8-31-40.6-101.6-40.6-101.6s-10.2-82.8-10.2-165.8v-77.6c0-82.8 10.2-165.8 10.2-165.8s10-70.6 40.6-101.6c39-40.8 90.2-39.4 113-43.8 82-7.8 348.2-10.2 348.2-10.2s215.2 0.4 358.4 10.6c20 2.4 63.6 2.6 102.6 43.4 30.8 31 40.8 101.6 40.8 101.6s10.2 82.8 10.2 165.8v77.6c-0.2 82.8-10.4 165.8-10.4 165.8zM406.2 315.2v287.8l276.6-144.4-276.6-143.4z" />
<glyph unicode="&#xf0ca;" glyph-name="marker" horiz-adv-x="731" d="M469.727 599.77q0 43.428-30.4 73.828t-73.828 30.4-73.828-30.4-30.4-73.828 30.4-73.828 73.828-30.4 73.828 30.4 30.4 73.828zM504.469 599.77q0-57.904-40.534-98.438t-98.438-40.534-98.438 40.534-40.534 98.438 40.534 98.438 98.438 40.534 98.438-40.534 40.534-98.438zM678.183 599.77q0 129.321-91.683 221.003t-221.003 91.683-221.003-91.683-91.683-221.003q0-79.137 33.778-139.937l247.060-450.692h63.696l247.060 450.692q33.778 60.8 33.778 139.937zM712.927 599.77q0-86.858-37.638-156.342l-257.676-469.028h-104.228l-257.676 469.028q-37.638 69.486-37.638 156.342 0 143.797 101.816 245.613t245.613 101.816 245.613-101.816 101.816-245.613z" />
</font>
</defs>
</svg>
