<svg xmlns="http://www.w3.org/2000/svg" version="1.1" xmlns:xlink="http://www.w3.org/1999/xlink" xmlns:svgjs="http://svgjs.dev/svgjs" width="1000" height="78" viewBox="0 0 1000 78"><g transform="matrix(1,0,0,1,-0.6060386191416001,-0.17423693555387842)"><svg viewBox="0 0 396 31" data-background-color="#000000" preserveAspectRatio="xMidYMid meet" height="78" width="1000" xmlns="http://www.w3.org/2000/svg" xmlns:xlink="http://www.w3.org/1999/xlink"><g id="tight-bounds" transform="matrix(1,0,0,1,0.23999129318008272,0.06924928729807789)"><svg viewBox="0 0 395.52 30.861501425403866" height="30.861501425403866" width="395.52"><g><svg viewBox="0 0 395.52 30.861501425403866" height="30.861501425403866" width="395.52"><g><svg viewBox="0 0 395.52 30.861501425403866" height="30.861501425403866" width="395.52"><g id="textblocktransform"><svg viewBox="0 0 395.52 30.861501425403866" height="30.861501425403866" width="395.52" id="textblock"><g><svg viewBox="0 0 395.52 30.861501425403866" height="30.861501425403866" width="395.52"><g transform="matrix(1,0,0,1,0,0)"><svg width="395.52" viewBox="2.8499999046325684 -36.349998474121094 473.5099792480469 36.94999694824219" height="30.861501425403866" data-palette-color="#ffffff"><path d="M22.9-34.55L22.05-32.6Q18.4-34.15 14.8-34.15L14.8-34.15Q7.5-34.15 7.5-28.75L7.5-28.75Q7.5-26.4 9.15-24.38 10.8-22.35 13.15-20.78 15.5-19.2 17.85-17.55 20.2-15.9 21.85-13.6 23.5-11.3 23.5-8.6L23.5-8.6Q23.5-4.05 20.45-1.73 17.4 0.6 12.03 0.6 6.65 0.6 2.85-2.15L2.85-2.15 4.05-3.95Q7.65-1.6 11.95-1.6 16.25-1.6 18.55-3.33 20.85-5.05 20.85-8.3L20.85-8.3Q20.85-10.55 19.2-12.58 17.55-14.6 15.2-16.23 12.85-17.85 10.5-19.55 8.15-21.25 6.5-23.6 4.85-25.95 4.85-28.65L4.85-28.65Q4.85-32.2 7.48-34.27 10.1-36.35 14.58-36.35 19.05-36.35 22.9-34.55L22.9-34.55ZM49.35-11.25L34.95-11.25 30.3 0 27.95 0 41.55-32.65 42.9-32.65 56.6 0 54.05 0 49.35-11.25ZM42.1-28.95L42.1-28.95Q41.35-26.7 40.75-25.2L40.75-25.2 35.75-13.2 48.55-13.2 43.6-25.15Q42.45-27.95 42.1-28.95ZM65.5 0L63.2 0 63.2-32.25Q66.95-32.65 71.12-32.65 75.3-32.65 78.2-30.43 81.1-28.2 81.1-23.7 81.1-19.2 77.15-16.32 73.2-13.45 67.8-13.45L67.8-13.45Q67.55-13.45 67.25-13.45L67.25-13.45 67.25-15.05Q67.45-15.05 67.6-15.05L67.6-15.05Q72.05-15.05 75.35-17.4 78.65-19.75 78.65-23.5 78.65-27.25 76.32-28.95 74-30.65 70.2-30.65L70.2-30.65Q68.2-30.65 65.5-30.45L65.5-30.45 65.5 0ZM91.89 0L89.59 0 89.59-32.25Q93.34-32.65 97.52-32.65 101.69-32.65 104.59-30.43 107.49-28.2 107.49-23.7 107.49-19.2 103.54-16.32 99.59-13.45 94.19-13.45L94.19-13.45Q93.94-13.45 93.64-13.45L93.64-13.45 93.64-15.05Q93.84-15.05 93.99-15.05L93.99-15.05Q98.44-15.05 101.74-17.4 105.04-19.75 105.04-23.5 105.04-27.25 102.72-28.95 100.39-30.65 96.59-30.65L96.59-30.65Q94.59-30.65 91.89-30.45L91.89-30.45 91.89 0ZM143.14 0L140.84 0 140.84-16.4 118.29-16.4 118.29 0 115.99 0 115.99-32.45 118.29-32.45 118.29-18.45 140.84-18.45 140.84-32.45 143.14-32.45 143.14 0ZM157.44 0L155.14 0 155.14-32.45 157.44-32.45 157.44 0ZM171.74 0L169.44 0 169.44-32.3Q173.74-32.65 176.74-32.65L176.74-32.65Q181.34-32.65 184.34-30.28 187.34-27.9 187.34-23.5L187.34-23.5Q187.34-20.55 185.64-18.05 183.94-15.55 181.79-14L181.79-14Q187.74-6.1 189.14-4.55L189.14-4.55Q191.99-1.6 195.34-1.2L195.34-1.2 195.29 0.35Q192.49 0.3 190.74-0.48 188.99-1.25 187.26-3.1 185.54-4.95 179.69-13.05L179.69-13.05Q175.64-13.05 171.74-13.3L171.74-13.3 171.74 0ZM178.44-14.95L178.44-14.95Q180.39-14.95 182.64-17.55 184.89-20.15 184.89-23.6 184.89-27.05 182.54-28.85 180.19-30.65 176.44-30.65L176.44-30.65Q174.44-30.65 171.74-30.45L171.74-30.45 171.74-15.2Q175.34-14.95 178.44-14.95ZM215.48 0L199.83 0 199.83-32.45 214.98-32.45 214.98-30.45 202.13-30.45 202.13-18.65 213.73-18.65 213.73-16.7 202.13-16.7 202.13-2.1 215.48-2.1 215.48 0ZM258.68-11.25L244.28-11.25 239.63 0 237.28 0 250.88-32.65 252.23-32.65 265.93 0 263.38 0 258.68-11.25ZM251.43-28.95L251.43-28.95Q250.68-26.7 250.08-25.2L250.08-25.2 245.08-13.2 257.88-13.2 252.93-25.15Q251.78-27.95 251.43-28.95ZM274.83 0L272.53 0 272.53-32.65 273.63-32.65 294.93-8.15Q296.08-6.85 297.05-5.58 298.03-4.3 298.08-4.25L298.08-4.25Q297.98-5.45 297.98-8.95L297.98-8.95 297.98-32.45 300.28-32.45 300.28 0.2 299.18 0.2 277.48-24.7 274.73-28.05Q274.83-27.05 274.83-23.35L274.83-23.35 274.83 0ZM322.67-1.7L322.67-1.7Q329.07-1.7 332.95-5.15 336.82-8.6 336.82-15.55 336.82-22.5 332.45-26.6 328.07-30.7 321.67-30.7L321.67-30.7Q317.12-30.7 314.67-30.5L314.67-30.5 314.67-2.05Q317.67-1.7 322.67-1.7ZM321.67-32.75L321.67-32.75Q329.17-32.75 334.2-28.13 339.22-23.5 339.22-15.55 339.22-7.6 334.6-3.6 329.97 0.4 322.67 0.4L322.67 0.4Q317.62 0.4 312.27-0.1L312.27-0.1 312.27-32.45Q316.27-32.75 321.67-32.75ZM384.12-34.55L383.27-32.6Q379.62-34.15 376.02-34.15L376.02-34.15Q368.72-34.15 368.72-28.75L368.72-28.75Q368.72-26.4 370.37-24.38 372.02-22.35 374.37-20.78 376.72-19.2 379.07-17.55 381.42-15.9 383.07-13.6 384.72-11.3 384.72-8.6L384.72-8.6Q384.72-4.05 381.67-1.73 378.62 0.6 373.24 0.6 367.87 0.6 364.07-2.15L364.07-2.15 365.27-3.95Q368.87-1.6 373.17-1.6 377.47-1.6 379.77-3.33 382.07-5.05 382.07-8.3L382.07-8.3Q382.07-10.55 380.42-12.58 378.77-14.6 376.42-16.23 374.07-17.85 371.72-19.55 369.37-21.25 367.72-23.6 366.07-25.95 366.07-28.65L366.07-28.65Q366.07-32.2 368.69-34.27 371.32-36.35 375.79-36.35 380.27-36.35 384.12-34.55L384.12-34.55ZM410.57-11.25L396.17-11.25 391.52 0 389.17 0 402.77-32.65 404.12-32.65 417.82 0 415.27 0 410.57-11.25ZM403.32-28.95L403.32-28.95Q402.57-26.7 401.97-25.2L401.97-25.2 396.97-13.2 409.77-13.2 404.82-25.15Q403.67-27.95 403.32-28.95ZM437.36-30.9Q431.81-30.9 428.04-26.68 424.26-22.45 424.26-16.3 424.26-10.15 428.51-5.88 432.76-1.6 438.54-1.6 444.31-1.6 447.51-2.95L447.51-2.95 447.51-16.3 449.81-16.3 449.81-1.9Q445.91 0.5 438.76 0.5 431.61 0.5 426.71-4.35 421.81-9.2 421.81-16.28 421.81-23.35 426.24-28.15 430.66-32.95 437.66-32.95L437.66-32.95Q443.31-32.95 448.71-31.2L448.71-31.2 448.11-29.3Q442.91-30.9 437.36-30.9ZM476.36 0L460.71 0 460.71-32.45 475.86-32.45 475.86-30.45 463.01-30.45 463.01-18.65 474.61-18.65 474.61-16.7 463.01-16.7 463.01-2.1 476.36-2.1 476.36 0Z" opacity="1" transform="matrix(1,0,0,1,0,0)" fill="#ffffff" class="wordmark-text-0" data-fill-palette-color="primary" id="text-0"></path></svg></g></svg></g></svg></g></svg></g><g></g></svg></g><defs></defs></svg><rect width="395.52" height="30.861501425403866" fill="none" stroke="none" visibility="hidden"></rect></g></svg></g></svg>